<?xml version="1.0" encoding="UTF-8"?>
<svg xmlns="http://www.w3.org/2000/svg" xmlns:xlink="http://www.w3.org/1999/xlink" viewBox="0 0 480 480" width="480px" height="480px">
<g id="surface103840223">
<path style=" stroke:none;fill-rule:nonzero;fill:rgb(0%,0%,0%);fill-opacity:1;" d="M 270.273438 219.507812 C 273.347656 222.671875 273.75 227.699219 273.75 240 C 273.75 252.300781 273.347656 257.328125 270.273438 260.492188 C 267.195312 263.65625 263.992188 263.90625 240 263.90625 C 216.007812 263.90625 212.804688 263.65625 209.726562 260.492188 C 206.652344 257.328125 206.25 252.300781 206.25 240 C 206.25 227.699219 206.652344 222.671875 209.726562 219.507812 C 212.804688 216.34375 216.007812 216.09375 240 216.09375 C 263.992188 216.09375 267.195312 216.34375 270.273438 219.507812 Z M 234.304688 250.429688 L 251.386719 240.53125 L 234.304688 230.789062 Z M 234.304688 250.429688 "/>
</g>
</svg>
