<svg fill="none" viewBox="0 0 24 24" xmlns="http://www.w3.org/2000/svg"><path clip-rule="evenodd" d="M9.654 7.835a.75.75 0 0 1 .776.05l5 3.5a.75.75 0 0 1 0 1.23l-5 3.5a.75.75 0 0 1-1.18-.615v-7a.75.75 0 0 1 .404-.665ZM10.75 9.94v4.12L13.692 12 10.75 9.94Z" fill="#ffffff" fill-rule="evenodd" class="fill-000000"></path><path clip-rule="evenodd" d="M12 2.75a9.25 9.25 0 0 0 0 18.5 9.206 9.206 0 0 0 5.55-1.849.75.75 0 1 1 .9 1.2A10.705 10.705 0 0 1 12 22.75C6.063 22.75 1.25 17.937 1.25 12S6.063 1.25 12 1.25 22.75 6.063 22.75 12c0 1.527-.319 2.982-.895 4.3a.75.75 0 0 1-1.374-.6 9.216 9.216 0 0 0 .769-3.7A9.25 9.25 0 0 0 12 2.75Z" fill="#ffffff" fill-rule="evenodd" class="fill-000000"></path><path clip-rule="evenodd" d="M12 6.25a5.75 5.75 0 1 0 0 11.5 5.75 5.75 0 0 0 0-11.5ZM4.75 12a7.25 7.25 0 1 1 14.5 0 7.25 7.25 0 0 1-14.5 0Z" fill="#ffffff" fill-rule="evenodd" class="fill-000000"></path></svg>