<svg viewBox="0 0 24 24" xmlns="http://www.w3.org/2000/svg"><path d="M12 23a8 8 0 0 1-8-8 9.55 9.55 0 0 1 2.12-5.93 12.25 12.25 0 0 0 2.55-7.13 1 1 0 0 1 1.42-.85 10.24 10.24 0 0 1 6.14 8.38 5.57 5.57 0 0 0 .59-1 1 1 0 0 1 .8-.65 1 1 0 0 1 .95.41c.15.18 1.43 2.1 1.43 6.77a7.91 7.91 0 0 1-8 8ZM10.51 3.6a14.22 14.22 0 0 1-2.73 6.6A7.52 7.52 0 0 0 6 15a6 6 0 0 0 6 6 5.87 5.87 0 0 0 6-6 16.14 16.14 0 0 0-.44-4 7.93 7.93 0 0 1-1.86 1.7 1 1 0 0 1-1.53-1 7.76 7.76 0 0 0-3.66-8.1Z" fill="#ffffff" class="fill-000000"></path></svg>